#!OML:ASF F:\VICON\USERDATA\INSTALL\rory3\rory3.ASF
:FULLY-SPECIFIED
:DEGREES
193
root 0.25375 17.2687 4.56687 2.14703 3.8764 7.71141
lowerback 6.01555 -3.44201 -7.25605
upperback 1.029 -5.01524 1.24478
thorax -1.56307 -2.47637 5.69274
lowerneck -16.6086 -2.34502 -9.60045
upperneck 20.4394 -1.77157 4.6274
head 9.3178 -1.06748 2.96745
rclavicle 2.9122e-014 -1.74931e-014
rhumerus -33.5604 -13.1041 -76.2101
rradius 25.454
rwrist 10.7332
rhand -14.6263 23.0855
rfingers 7.12502
rthumb 11.5251 -6.5776
lclavicle 2.9122e-014 -1.74931e-014
lhumerus -22.4881 -0.278214 81.032
lradius 36.5519
lwrist -8.05819
lhand -18.1998 24.912
lfingers 7.12502
lthumb 8.07752 54.7377
rfemur -38.2722 5.03454 7.20853
rtibia 25.0926
rfoot -11.9163 -13.9444
rtoes -14.0902
lfemur 20.1243 -6.33747 -31.8736
ltibia 5.08889e-014
lfoot -9.95519 -0.399336
ltoes -11.9823
194
root 0.232733 17.2636 4.77533 2.1171 3.83783 7.52148
lowerback 5.99805 -3.43248 -7.16064
upperback 0.92341 -4.99638 1.36043
thorax -1.66385 -2.46028 5.76312
lowerneck -16.086 -2.28476 -9.66297
upperneck 20.3332 -1.7297 4.64707
head 9.18226 -1.05394 2.98856
rclavicle -1.61016e-014 -5.56597e-015
rhumerus -34.1331 -13.6564 -75.7943
rradius 25.0442
rwrist 11.3164
rhand -14.0506 20.2214
rfingers 7.12502
rthumb 12.0803 -9.40987
lclavicle -1.61016e-014 -5.56597e-015
lhumerus -22.6112 0.00310645 81.1007
lradius 36.8507
lwrist -8.01179
lhand -18.1295 25.0008
lfingers 7.12502
lthumb 8.14536 54.8238
rfemur -38.2514 4.2243 8.07584
rtibia 25.8833
rfoot -11.0348 -13.0943
rtoes -12.6773
lfemur 20.7827 -6.38677 -31.5608
ltibia -3.18055e-014
lfoot -9.74907 -1.16911
ltoes -11.4441
195
root 0.208506 17.2477 4.97838 2.18693 3.75509 7.40156
lowerback 5.94797 -3.40801 -7.17671
upperback 0.86226 -4.96125 1.45173
thorax -1.69523 -2.43977 5.865
lowerneck -15.8645 -2.25487 -9.56917
upperneck 20.285 -1.70165 4.50073
head 9.12096 -1.05077 2.92481
rclavicle 1.02871e-013 -1.59028e-015
rhumerus -34.5083 -14.3128 -75.4031
rradius 24.5012
rwrist 12.1627
rhand -13.6113 18.7655
rfingers 7.12502
rthumb 12.5039 -10.8404
lclavicle 1.02871e-013 -1.59028e-015
lhumerus -22.6677 0.255067 81.129
lradius 37.1931
lwrist -7.90211
lhand -18.3631 24.6322
lfingers 7.12502
lthumb 7.91991 54.4638
rfemur -38.3625 3.3601 8.93311
rtibia 26.8642
rfoot -10.1606 -12.2672
rtoes -11.2462
lfemur 21.351 -6.41408 -31.3146
ltibia -3.49861e-014
lfoot -9.47048 -1.69785
ltoes -11.4461
196
root 0.187277 17.2222 5.18452 2.19192 3.66373 7.48775
lowerback 5.93611 -3.3436 -7.32719
upperback 0.895669 -4.88345 1.4364
thorax -1.65431 -2.40292 5.92718
lowerneck -16.3217 -2.29128 -9.37678
upperneck 20.7597 -1.72787 4.35336
head 9.36919 -1.06905 2.845
rclavicle -4.44284e-014 -1.51076e-014
rhumerus -34.7084 -15.4735 -74.8611
rradius 23.7622
rwrist 13.4364
rhand -13.5138 18.8109
rfingers 7.12502
rthumb 12.5979 -10.7892
lclavicle -4.44284e-014 -1.51076e-014
lhumerus -22.49 0.316753 81.1665
lradius 37.4318
lwrist -7.60746
lhand -18.2929 25.1824
lfingers 7.12502
lthumb 7.98767 55.0115
rfemur -38.3302 2.67521 9.46658
rtibia 27.9237
rfoot -9.78417 -11.6409
rtoes -9.22714
lfemur 22.0998 -6.41692 -31.3211
ltibia -9.54166e-015
lfoot -9.04271 -2.01473
ltoes -12.5269
197
root 0.165208 17.2014 5.40384 2.05917 3.6743 7.49104
lowerback 5.88278 -3.33649 -7.42799
upperback 0.972542 -4.87283 1.48681
thorax -1.533 -2.40508 6.02824
lowerneck -16.5041 -2.28513 -9.28171
upperneck 21.0067 -1.69322 4.20079
head 9.48509 -1.06555 2.78372
rclavicle 5.37713e-014 -2.38542e-014
rhumerus -34.7906 -16.6359 -74.2163
rradius 22.8978
rwrist 14.841
rhand -13.1088 18.8575
rfingers 7.12502
rthumb 12.9883 -10.7182
lclavicle 5.37713e-014 -2.38542e-014
lhumerus -22.4803 0.748641 81.2842
lradius 37.7918
lwrist -7.26432
lhand -18.2184 26.2446
lfingers 7.12502
lthumb 8.05952 56.0709
rfemur -38.0586 2.29846 9.9571
rtibia 29.1373
rfoot -9.63592 -11.5367
rtoes -9.82566
lfemur 22.9999 -6.48614 -31.2798
ltibia 4.77083e-014
lfoot -8.41415 -2.28279
ltoes -14.9152
198
root 0.133395 17.1854 5.63092 2.00849 3.62568 7.23659
lowerback 5.57262 -3.33474 -7.33931
upperback 1.04022 -4.83769 1.59898
thorax -1.2923 -2.401 6.06767
lowerneck -16.3216 -2.25114 -9.29025
upperneck 20.9711 -1.65539 4.17311
head 9.43597 -1.05267 2.77993
rclavicle -3.0911e-014 -5.56597e-015
rhumerus -34.9413 -17.6309 -73.6941
rradius 22.1003
rwrist 16.1063
rhand -13.0457 19.2376
rfingers 7.12502
rthumb 13.0492 -10.3342
lclavicle -3.0911e-014 -5.56597e-015
lhumerus -22.6295 1.20704 81.3251
lradius 38.2299
lwrist -7.28138
lhand -17.6442 26.4216
lfingers 7.12502
lthumb 8.61366 56.2258
rfemur -37.8261 2.26765 10.7067
rtibia 30.3895
rfoot -9.58635 -11.6521
rtoes -10.947
lfemur 23.7868 -6.52231 -30.9226
ltibia -7.95139e-014
lfoot -7.69312 -2.52035
ltoes -15.221
199
root 0.0996403 17.1803 5.86323 2.0023 3.65815 7.12779
lowerback 5.24429 -3.40711 -7.46539
upperback 1.01869 -4.91538 1.73602
thorax -1.09592 -2.44839 6.26066
lowerneck -15.9663 -2.18959 -9.49976
upperneck 20.9809 -1.57328 4.26408
head 9.37037 -1.02467 2.85752
rclavicle -6.26172e-015 -7.95139e-015
rhumerus -35.3207 -18.241 -73.1856
rradius 21.5426
rwrist 16.9428
rhand -13.262 19.4699
rfingers 7.12502
rthumb 12.8407 -10.1151
lclavicle -6.26172e-015 -7.95139e-015
lhumerus -22.7948 1.89801 81.4222
lradius 38.332
lwrist -7.75623
lhand -17.333 26.2975
lfingers 7.12502
lthumb 8.914 56.0892
rfemur -37.5143 2.3232 11.2016
rtibia 31.4752
rfoot -9.0197 -11.5209
rtoes -12.0297
lfemur 24.5638 -6.64288 -30.7366
ltibia -7.31528e-014
lfoot -6.92032 -2.69702
ltoes -15.1386
